<svg version="1.1" id="Layer_1" xmlns="http://www.w3.org/2000/svg" xmlns:xlink="http://www.w3.org/1999/xlink" x="0px" y="0px"
	 width="100%" viewBox="0 0 200 200" enable-background="new 0 0 200 200" xml:space="preserve">
<path fill="#000000" opacity="1.000000" stroke="none" 
	d="
M104.000000,201.000000 
	C69.354691,201.000000 35.209385,201.000000 1.032038,201.000000 
	C1.032038,134.396378 1.032038,67.792740 1.032038,1.094551 
	C67.561836,1.094551 134.123856,1.094551 200.842926,1.094551 
	C200.842926,67.666374 200.842926,134.333145 200.842926,201.000000 
	C168.792984,201.000000 136.646484,201.000000 104.000000,201.000000 
M62.680508,74.874207 
	C75.320084,97.018021 87.959671,119.161835 100.996010,142.000748 
	C114.504791,118.360214 127.561043,95.511620 140.890625,72.184692 
	C139.530472,72.096733 138.759949,72.003601 137.989395,72.003357 
	C113.672287,71.995644 89.355171,71.995476 65.038063,72.002228 
	C64.042892,72.002502 63.047733,72.080658 62.052563,72.122520 
	C62.117771,72.838570 62.182980,73.554619 62.680508,74.874207 
z"/>
<path fill="#FDFDFD" opacity="1.000000" stroke="none" 
	d="
M62.464348,74.572433 
	C62.182980,73.554619 62.117771,72.838570 62.052567,72.122520 
	C63.047733,72.080658 64.042892,72.002502 65.038063,72.002228 
	C89.355171,71.995476 113.672287,71.995644 137.989395,72.003357 
	C138.759949,72.003601 139.530472,72.096733 140.890625,72.184692 
	C127.561043,95.511620 114.504791,118.360214 100.996010,142.000748 
	C87.959671,119.161835 75.320084,97.018021 62.464348,74.572433 
z"/>
</svg>